<svg width="720.000000pt" height="475.000000pt" viewBox="0 0 720.000000 475.000000" xmlns="http://www.w3.org/2000/svg">
  <g transform="translate(0.000000,475.000000) scale(0.100000,-0.100000)" fill="#6e3f3f" stroke="none">
    <path d="M0 2375 l0 -2375 3600 0 3600 0 0 2375 0 2375 -3600 0 -3600 0 0
-2375z m3610 860 c0 -19 -3 -35 -8 -35 -12 0 -42 -95 -42 -136 l-1 -39 -10 18
-11 19 10 36 c6 21 18 57 27 82 9 24 15 55 12 67 l-4 23 13 0 14 0 0 -35z
m172 -219 c-12 -33 -22 -78 -22 -98 0 -21 -4 -38 -10 -38 -16 0 -11 56 10 110
11 28 20 70 21 93 l0 42 12 -24 11 -23 -22 -62z m-456 -22 l-27 -78 6 -23 5
-23 -10 0 c-17 0 -11 61 10 118 11 29 20 69 21 90 l0 37 11 -22 10 -21 -26
-78z m412 -184 c62 -28 127 -83 165 -141 l32 -49 18 0 c9 0 54 18 98 41 l82
40 10 -10 c20 -20 -4 -41 -93 -86 l-91 -46 3 -17 3 -17 65 -5 c36 -3 75 -11
86 -17 12 -7 26 -26 32 -42 l10 -29 -16 -24 c-9 -12 -42 -52 -74 -88 l-58 -65
0 -28 0 -29 -29 -29 -29 -29 -372 0 -372 0 -29 29 -29 29 0 30 0 29 -70 79
-70 79 0 26 0 26 26 24 26 24 65 5 65 5 18 52 c62 178 237 286 424 261 32 -4
79 -17 104 -28z m-2338 -1045 c0 -8 7 -15 15 -15 8 0 15 7 15 15 l0 15 33 -1
c17 0 26 -3 20 -6 -7 -2 -13 -11 -13 -19 l0 -14 -25 0 -25 0 0 -60 0 -60 -15
0 c-8 0 -15 -7 -15 -15 l0 -15 58 -2 57 -1 -42 -4 -43 -4 0 -33 c0 -38 -6 -47
-26 -39 l-14 5 0 134 0 134 10 0 c6 0 10 -7 10 -15z m260 0 c0 -8 -4 -15 -10
-15 -5 0 -10 -13 -10 -30 l0 -30 15 0 c8 0 15 -7 15 -15 0 -8 -7 -15 -15 -15
-8 0 -15 -7 -15 -15 0 -8 7 -15 15 -15 l15 0 0 -39 0 -39 -20 -5 -20 -5 0 103
c0 57 3 110 6 119 8 20 24 21 24 1z m110 -5 l0 -20 -52 1 c-29 0 -47 3 -40 6
6 2 12 11 12 19 l0 14 40 0 40 0 0 -20z m168 -13 l17 -5 -22 -1 -23 -1 1 23 1
22 5 -17 c2 -9 12 -19 21 -21z m172 18 c0 -8 7 -15 15 -15 8 0 15 7 15 15 l0
16 63 -3 62 -3 0 -15 0 -15 -32 -3 -32 -3 -3 -117 -3 -117 -17 -3 c-10 -2 -18
1 -18 7 0 6 7 11 15 11 8 0 15 7 15 15 0 8 -7 15 -15 15 l-15 0 0 75 0 75 15
0 15 0 0 35 0 35 -15 0 c-8 0 -15 -7 -15 -15 l0 -15 -35 0 -35 0 0 20 c0 11 5
20 10 20 6 0 10 -7 10 -15z m341 -12 c5 -14 8 -31 6 -37 -2 -6 -7 4 -11 22
l-8 34 -19 -5 c-10 -3 -19 -1 -19 4 0 5 9 9 20 9 l20 0 11 -27z m189 -79 l0
-105 -14 -14 -14 -14 -6 15 c-3 9 -6 63 -6 120 l0 104 20 0 20 0 0 -106z m128
99 l-18 -4 -2 -67 -2 -67 -3 59 c-2 32 -2 65 1 72 3 8 13 13 23 13 l18 -1 -17
-5z m215 -13 l-5 -20 -22 0 c-37 0 -66 -12 -66 -26 0 -8 7 -14 15 -14 l15 0 0
-40 0 -40 -15 0 -15 0 0 -20 c0 -11 4 -20 9 -20 21 0 41 13 41 26 0 8 6 14 14
14 l14 0 -5 -20 -5 -20 -19 0 -19 0 0 -41 0 -40 -17 3 -18 3 -3 138 -3 137 55
0 54 0 -5 -20z m257 3 l0 -18 -9 14 -9 14 -16 -6 c-9 -4 -16 -2 -16 3 0 6 11
10 25 10 l25 0 0 -17z m210 -23 l20 -40 -16 0 -16 0 7 -30 7 -30 -11 0 -11 0
0 65 0 65 -15 0 -15 0 -2 -112 -2 -113 -3 104 c-2 58 -1 111 1 118 3 7 12 13
20 13 l16 0 20 -40z m110 -95 l0 -136 -16 -6 -17 -6 -13 18 c-17 22 -18 35 -4
35 6 0 10 -9 10 -20 l0 -20 15 0 15 0 0 25 c0 14 -4 25 -9 25 -5 0 -14 14 -21
30 -13 31 -34 40 -43 18 l-5 -13 -1 18 c-1 9 4 17 9 17 6 0 10 7 10 15 0 8 5
15 10 15 l10 0 0 53 c0 30 3 57 7 60 3 4 15 7 25 7 l18 0 0 -135z m260 115 l0
-20 -30 0 -29 0 -3 -117 -3 -118 -20 0 -20 0 0 115 -1 115 -32 3 -32 3 0 20 0
19 85 0 85 0 0 -20z m220 0 l0 -20 -50 0 -50 0 0 -40 0 -40 -15 0 c-8 0 -15
-7 -15 -15 0 -8 7 -15 15 -15 8 0 15 7 15 15 l0 15 40 0 40 0 0 -14 0 -15 -37
-3 -38 -3 -3 -42 -3 -43 -15 0 c-8 0 -14 -7 -14 -15 0 -8 7 -15 15 -15 8 0 15
7 15 15 l0 15 50 0 50 0 0 -20 0 -21 -67 3 -68 3 -3 138 -3 137 71 0 70 0 0
-20z m288 -4 l4 -18 -18 4 c-11 2 -20 11 -22 22 l-4 18 18 -4 c11 -2 20 -11
22 -22z m142 4 l0 -20 -19 0 -19 0 5 20 c3 11 12 20 19 20 l14 0 0 -20z m130
-121 l0 -140 -17 3 -18 3 -3 138 -3 137 21 0 20 0 0 -141z m250 121 l0 -20
-30 0 -29 0 -3 -117 -3 -118 -17 -3 -18 -3 0 120 0 121 -35 0 -35 0 0 20 0 20
85 0 85 0 0 -20z m240 -2 l24 -23 -17 -3 c-23 -5 -21 -28 3 -35 l20 -5 0 -51
0 -51 -20 0 c-11 0 -21 -6 -22 -12 -1 -7 -4 25 -7 72 l-6 85 -36 3 -37 3 -5
20 -5 19 42 0 42 0 24 -22z m223 2 l-5 -20 -29 0 -29 0 0 -60 0 -60 -15 0 -15
0 0 -20 0 -20 15 0 15 0 0 -41 0 -40 -17 3 -18 3 -3 138 -3 137 55 0 54 0 -5
-20z m192 -120 l0 -135 -20 0 -20 0 -3 138 -3 138 23 -3 23 -3 0 -135z m217
67 c11 -38 17 -71 14 -74 -11 -11 -36 7 -36 27 l0 20 -15 0 c-8 0 -15 -4 -15
-10 0 -5 -9 -10 -21 -10 l-21 0 6 16 c3 9 6 23 7 32 l1 17 5 -12 c7 -18 33
-16 33 2 0 8 -7 15 -15 15 -16 0 -19 9 -9 35 l7 16 20 -3 20 -3 19 -68z
m-3721 20 c-13 -13 -31 0 -24 19 l5 15 15 -12 14 -12 -10 -10z m-124 -6 c-7
-2 -16 -9 -20 -15 l-9 -11 6 18 c3 10 6 23 6 28 0 5 6 4 14 -3 l14 -13 -11 -4z
m520 7 l-5 -13 -1 19 c-1 11 2 17 5 13 3 -3 4 -12 1 -19z m390 -100 c-2 -24
-4 -5 -4 42 0 47 2 66 4 43 2 -24 2 -62 0 -85z m400 105 c-4 -3 -7 0 -7 7 0 7
3 10 7 7 3 -4 3 -10 0 -14z m1776 -3 l12 0 -3 -80 -4 -80 -13 0 c-7 0 -16 -6
-18 -12 -3 -7 -6 26 -6 74 -1 47 2 94 6 104 l7 18 4 -12 c2 -7 9 -12 15 -12z
m406 -55 c-1 -22 -3 -34 -6 -27 -2 6 -11 12 -19 12 l-14 0 0 30 c0 17 6 37 13
44 l12 14 7 -17 c4 -9 7 -34 7 -56z m-2119 50 c0 -8 -7 -15 -15 -15 -8 0 -15
-7 -15 -15 0 -8 -4 -15 -9 -15 -5 0 -7 9 -4 20 3 11 12 20 19 20 8 0 14 5 14
10 0 6 2 10 5 10 3 0 5 -7 5 -15z m-211 -47 c0 -29 -3 -47 -6 -40 -2 6 -11 12
-19 12 l-14 0 0 34 0 35 18 4 c9 3 18 5 20 6 1 0 2 -23 1 -51z m1341 -68 l15
-9 -13 -13 -12 -12 0 18 0 18 -18 -4 -19 -5 -12 48 -13 48 14 14 13 15 15 -55
c9 -30 22 -58 30 -63z m73 80 l-5 -19 -14 6 c-8 3 -14 13 -14 23 l0 18 19 -5
19 -5 -5 -18z m-2066 3 c-4 -3 -7 0 -7 7 0 7 3 10 7 7 3 -4 3 -10 0 -14z m43
2 c0 -8 -4 -15 -10 -15 -5 0 -7 7 -4 15 4 8 8 15 10 15 2 0 4 -7 4 -15z m747
-2 c-4 -3 -7 0 -7 7 0 7 3 10 7 7 3 -4 3 -10 0 -14z m-1647 3 c0 -2 3 -11 6
-20 l6 -16 -21 0 -21 0 0 20 0 20 15 0 c8 0 15 -2 15 -4z m367 -20 c-6 -8 -15
-12 -19 -9 -4 2 -2 10 5 17 6 8 15 12 19 9 4 -2 2 -10 -5 -17z m577 -8 l6 -28
-15 0 c-22 0 -30 26 -13 43 7 8 13 14 14 13 1 0 4 -13 8 -28z m790 -46 c-8 -2
-14 -12 -14 -23 l0 -20 18 3 17 3 12 -39 c7 -22 10 -42 8 -44 -11 -11 -34 10
-40 37 l-7 31 -43 0 -43 0 5 20 5 20 -16 0 c-9 0 -16 4 -16 9 l0 10 30 -10
c17 -6 30 -17 30 -25 0 -8 7 -14 15 -14 l15 0 0 30 c0 17 5 30 10 30 6 0 10 7
10 15 0 8 -7 15 -15 15 l-16 0 13 14 13 14 11 -36 11 -37 -13 -3z m-864 32 c0
-2 -7 -4 -15 -4 -8 0 -15 4 -15 10 0 5 7 7 15 4 8 -4 15 -8 15 -10z m790 0 c0
-2 -7 -4 -15 -4 -8 0 -15 4 -15 10 0 5 7 7 15 4 8 -4 15 -8 15 -10z m-1440 -9
l0 -15 -30 0 -30 0 0 15 0 15 30 0 30 0 0 -15z m-259 -18 l-12 -12 7 18 c3 10
9 15 12 12 3 -3 0 -11 -7 -18z m2949 13 c0 -5 -7 -7 -15 -4 -8 4 -15 8 -15 10
0 2 7 4 15 4 8 0 15 -4 15 -10z m907 -20 l15 0 -12 -15 -12 -15 4 -27 c3 -16
9 -36 13 -45 l7 -18 -16 0 c-9 0 -22 12 -28 26 l-12 25 13 8 13 9 -7 21 c-7
24 -35 29 -35 6 l0 -15 -20 0 -20 0 0 20 0 20 29 0 c17 0 33 5 37 12 l8 12 4
-12 c2 -7 11 -12 19 -12z m313 -1 c0 -5 11 -9 25 -9 l26 0 5 -15 c4 -8 14 -15
24 -15 l18 0 10 -41 10 -40 -16 3 -17 3 -10 33 -9 32 -42 0 -42 0 -12 -35 -12
-35 -14 0 c-8 0 -14 2 -14 5 0 3 7 34 16 69 l16 64 19 -5 c10 -3 19 -9 19 -14z
m-3642 -14 c-3 -3 -9 2 -12 12 l-7 18 12 -12 c7 -7 10 -15 7 -18z m442 -12 l0
-14 18 3 17 3 12 -39 c7 -22 10 -42 8 -44 -11 -11 -34 10 -40 37 l-7 31 -42 0
-43 0 4 23 5 23 34 -4 34 -4 0 -15z m287 -15 c-3 -7 -5 -2 -5 12 0 14 2 19 5
13 2 -7 2 -19 0 -25z m1680 15 c-4 -3 -7 0 -7 7 0 7 3 10 7 7 3 -4 3 -10 0
-14z m-1428 -44 c-8 -4 -16 -5 -19 -2 -3 3 1 8 8 10 6 3 13 14 13 26 l2 22 4
-24 5 -24 -13 -8z m-994 11 l14 0 -5 -15 -6 -14 -14 14 c-8 7 -13 22 -13 32
l1 18 5 -17 c2 -10 11 -18 18 -18z m2342 3 c-4 -3 -7 0 -7 7 0 7 3 10 7 7 3
-4 3 -10 0 -14z m70 0 c-4 -3 -7 0 -7 7 0 7 3 10 7 7 3 -4 3 -10 0 -14z
m-1247 -12 c0 -5 -9 -7 -20 -4 -11 3 -20 7 -20 9 0 2 9 4 20 4 11 0 20 -4 20
-9z m1922 -23 l-22 -22 0 16 c0 9 -6 19 -12 22 -7 3 -1 3 15 0 l27 -6 0 13 c0
7 3 9 7 5 4 -3 -3 -16 -15 -28z m-2339 13 l19 -7 -16 -13 -16 -13 0 15 c0 8
-6 18 -12 20 -7 3 -8 5 -3 6 6 0 18 -4 28 -8z m1617 -11 l0 -20 18 -1 17 -1
-14 -5 -14 -6 -14 19 c-16 21 -17 34 -3 34 6 0 10 -9 10 -20z m37 -2 l-5 -13
-1 19 c-1 11 2 17 5 13 3 -3 4 -12 1 -19z m-2637 -9 l0 -20 -42 3 -43 3 -3 18
-3 17 45 0 46 0 0 -21z m183 1 l5 -20 -21 1 c-12 0 -16 3 -9 6 6 2 12 11 12
19 0 20 7 17 13 -6z m761 -12 l11 -8 -35 1 c-19 1 -27 3 -17 6 9 2 17 12 18
21 l1 17 5 -15 c3 -8 11 -18 17 -22z m2246 22 c0 -5 -2 -10 -4 -10 -3 0 -8 5
-11 10 -3 6 -1 10 4 10 6 0 11 -4 11 -10z m70 -4 c0 -8 6 -17 13 -19 6 -3 -4
-5 -23 -5 -19 0 -29 2 -22 5 6 2 12 11 12 19 0 8 5 14 10 14 6 0 10 -6 10 -14z
m-3130 -6 c0 -5 -2 -10 -4 -10 -3 0 -8 5 -11 10 -3 6 -1 10 4 10 6 0 11 -4 11
-10z m1130 -5 c0 -8 -7 -15 -15 -15 -26 0 -18 20 13 29 1 1 2 -6 2 -14z m-665
-5 c-3 -5 -13 -10 -21 -10 -8 0 -14 5 -14 10 0 6 9 10 21 10 l20 0 -6 -10z
m790 0 c-3 -5 -13 -10 -21 -10 -8 0 -14 5 -14 10 0 6 9 10 21 10 l20 0 -6 -10z
m266 -8 c-7 -2 -18 1 -23 6 l-11 11 24 -6 23 -7 -13 -4z" />
    <path d="M3494 2820 c-61 -13 -139 -55 -184 -100 -42 -42 -83 -115 -95 -167
l-7 -33 29 0 29 0 13 38 c31 85 113 166 202 197 52 19 132 19 191 1 66 -19
134 -70 171 -127 18 -27 37 -49 42 -49 6 0 16 4 24 9 l14 9 -6 23 c-16 64
-120 158 -207 188 -47 16 -166 22 -216 11z" />
    <path d="M3450 2729 c-25 -11 -62 -37 -83 -57 -43 -41 -77 -100 -77 -132 l0
-20 25 0 25 0 19 38 c23 43 73 93 117 116 18 8 50 18 72 22 l41 6 50 -12 51
-12 50 -44 c27 -25 52 -54 55 -64 7 -21 31 -26 54 -11 l14 9 -12 31 c-19 45
-78 100 -135 127 l-51 24 -85 0 -85 0 -45 -21z" />
    <path d="M3470 2658 l-45 -23 -32 -43 c-18 -24 -33 -50 -33 -58 l0 -14 25 0
25 0 43 44 42 44 45 12 44 12 41 -12 40 -12 43 -45 43 -44 17 3 c9 2 18 13 20
25 l3 21 -33 38 c-18 20 -51 45 -73 55 l-40 19 -65 0 -66 0 -44 -22z" />
    <path d="M3510 2599 c-36 -15 -60 -39 -60 -61 l0 -18 28 0 c15 0 36 7 46 15
11 8 36 15 56 15 20 0 45 -7 56 -15 10 -8 32 -15 47 -15 l28 0 -3 21 c-2 12
-15 31 -30 42 l-28 21 -57 3 c-32 1 -69 -2 -83 -8z" />
    <path d="M3060 2443 c0 -10 30 -51 67 -92 l67 -74 5 -41 6 -41 375 0 375 0 3
37 3 37 70 77 c38 43 69 86 69 96 l0 18 -520 0 -520 0 0 -17z" />
    <path d="M5620 1595 c0 -8 7 -15 15 -15 8 0 15 7 15 15 0 8 -7 15 -15 15 -8 0
-15 -7 -15 -15z" />
  </g>
  <g transform="translate(0.000000,475.000000) scale(0.100000,-0.100000)" fill="#efc6aa" stroke="none">
    <path d="M3575 3280 c-3 -6 -4 -19 0 -29 3 -10 -2 -38 -10 -62 -29 -78 -37
-118 -31 -144 l6 -25 15 0 15 0 0 36 c0 39 30 134 42 134 5 0 8 20 8 44 l0 44
-16 6 c-21 8 -22 8 -29 -4z" />
    <path d="M3320 3091 c0 -22 -9 -64 -20 -93 -11 -29 -20 -72 -20 -94 l0 -42 15
-6 16 -6 5 15 c4 8 4 22 0 30 -3 8 7 51 21 95 l27 79 -9 27 c-6 15 -16 29 -22
32 l-13 4 0 -41z" />
    <path d="M3770 3090 c0 -21 -9 -63 -20 -91 l-21 -52 3 -41 3 -41 15 0 15 0 6
55 c4 30 14 72 23 92 25 57 19 118 -10 118 l-14 0 0 -40z" />
    <path d="M3510 2848 c-64 -10 -140 -45 -193 -88 -48 -41 -94 -109 -117 -173
l-18 -52 -65 -5 -65 -5 -22 -20 c-12 -11 -26 -30 -31 -42 l-9 -23 9 -22 c5
-13 39 -56 75 -97 l66 -74 0 -29 0 -30 29 -29 29 -29 382 0 382 0 29 29 29 29
0 29 0 28 65 73 c35 40 69 81 75 93 l11 20 -11 35 -12 34 -28 15 -29 15 -55 0
c-30 0 -58 4 -61 10 l-6 9 90 46 c50 24 94 53 100 63 l9 18 -9 17 c-6 9 -17
17 -25 17 -8 0 -50 -18 -94 -40 -44 -22 -83 -40 -87 -40 -5 0 -21 20 -36 45
-32 51 -95 108 -147 135 -72 37 -174 52 -260 38z m140 -38 c29 -6 73 -20 98
-33 54 -26 124 -92 147 -137 l17 -33 -13 -8 -13 -8 -33 49 c-38 57 -106 107
-171 126 -59 18 -159 18 -211 -1 -89 -31 -171 -112 -202 -197 l-13 -38 -17 0
-18 0 8 28 c15 51 52 113 91 152 62 62 161 105 251 109 15 1 50 -4 79 -9z m55
-94 c55 -25 107 -72 130 -116 l15 -28 -18 -7 -17 -6 -4 13 c-2 7 -27 36 -56
64 l-52 51 -52 13 -53 13 -49 -6 c-26 -3 -63 -13 -81 -23 -46 -23 -96 -72
-119 -116 -11 -21 -26 -38 -34 -38 -20 0 -19 13 4 58 26 50 87 107 141 131
l45 21 75 0 75 0 50 -24z m-30 -65 c38 -17 105 -81 105 -101 0 -5 -5 -12 -11
-16 l-11 -6 -31 37 c-33 40 -96 74 -137 75 -14 0 -43 -5 -65 -11 l-40 -11 -43
-45 -43 -44 -16 3 -16 3 34 45 34 45 45 23 44 22 56 0 55 0 40 -19z m-7 -78
c14 -10 28 -25 30 -31 5 -17 -24 -15 -53 4 -13 8 -42 15 -64 16 l-41 0 -25
-16 c-26 -17 -55 -21 -55 -8 0 13 31 39 60 51 14 6 47 9 73 7 l48 -3 27 -20z
m422 -131 c0 -4 -31 -43 -69 -86 l-70 -77 -3 -37 -3 -37 -365 0 -365 0 -5 41
-6 41 -64 72 c-36 39 -66 76 -68 81 l-4 10 511 0 c281 0 511 -4 511 -8z" />
    <path d="M5020 1865 c0 -8 0 -17 0 -20 0 -3 3 -5 8 -4 4 1 6 5 5 10 -2 5 2 8
8 7 6 -2 14 3 16 10 l5 12 -21 0 -21 0 0 -15z" />
    <path d="M1370 1646 l0 -145 20 -6 c11 -3 24 -3 30 0 5 3 10 22 10 41 l0 34
13 0 c6 0 19 -18 28 -39 l16 -38 27 0 26 0 0 14 c0 8 -7 27 -15 44 l-16 30 14
14 c16 16 28 70 22 100 -2 11 -4 28 -4 38 -1 9 -10 26 -21 37 l-20 20 -65 0
-65 0 0 -144z m116 58 l7 -25 -12 -25 -11 -24 -20 0 -20 0 0 50 0 50 25 0 25
0 6 -26z m31 9 c-4 -3 -7 0 -7 7 0 7 3 10 7 7 3 -4 3 -10 0 -14z m0 -80 c-4
-3 -7 0 -7 7 0 7 3 10 7 7 3 -4 3 -10 0 -14z" />
    <path d="M1623 1643 l2 -148 78 -3 77 -3 0 30 0 31 -50 0 -50 0 0 35 0 35 40
0 40 0 0 25 0 25 -40 0 -40 0 0 30 0 30 50 0 50 0 0 30 0 30 -80 0 -79 0 2
-147z m34 80 c-4 -3 -7 0 -7 7 0 7 3 10 7 7 3 -4 3 -10 0 -14z m8 -193 c3 -5
1 -10 -4 -10 -6 0 -11 5 -11 10 0 6 2 10 4 10 3 0 8 -4 11 -10z" />
    <path d="M1878 1775 l-26 -15 -7 -31 -7 -31 19 -27 c11 -14 40 -37 66 -51 l47
-25 0 -17 0 -17 -22 -7 -22 -7 -18 23 -18 23 -20 -18 c-11 -10 -20 -23 -20
-30 0 -20 36 -46 72 -51 l35 -6 31 16 30 16 12 35 11 34 -13 28 -13 27 -54 31
c-30 16 -54 35 -53 40 2 17 43 18 61 1 l17 -16 23 16 23 16 -28 29 -28 29 -35
0 c-20 -1 -48 -7 -63 -15z m69 -12 c-4 -3 -10 -3 -14 0 -3 4 0 7 7 7 7 0 10
-3 7 -7z m-47 -7 c0 -3 -5 -8 -12 -12 l-11 -7 7 11 c7 12 16 16 16 8z m-23
-63 c-4 -3 -7 0 -7 7 0 7 3 10 7 7 3 -4 3 -10 0 -14z m108 -71 c-3 -3 -11 0
-18 7 l-12 12 18 -7 c10 -3 15 -9 12 -12z m22 -49 c-4 -3 -7 0 -7 7 0 7 3 10
7 7 3 -4 3 -10 0 -14z m-80 -50 c-4 -3 -10 -3 -14 0 -3 4 0 7 7 7 7 0 10 -3 7
-7z" />
    <path d="M2080 1760 l0 -30 35 0 35 0 0 -121 0 -120 28 3 27 3 3 117 3 117 32
3 32 3 0 25 0 25 -97 3 -98 3 0 -31z m97 -22 l-5 -13 -1 19 c-1 11 2 17 5 13
3 -3 4 -12 1 -19z" />
    <path d="M2357 1652 c-21 -76 -37 -144 -37 -151 l0 -12 27 3 27 3 8 33 9 32
33 0 33 0 9 -32 10 -33 27 -3 27 -3 0 13 c-1 7 -18 74 -38 148 l-38 135 -30 3
-31 3 -36 -139z m66 93 c-3 -9 -8 -14 -10 -11 -3 3 -2 9 2 15 9 16 15 13 8 -4z
m16 -117 c1 -5 -6 -8 -14 -8 -16 0 -19 9 -8 36 l6 18 8 -20 c4 -10 8 -22 8
-26z m-82 -95 c-4 -3 -7 0 -7 7 0 7 3 10 7 7 3 -4 3 -10 0 -14z" />
    <path d="M2590 1669 l0 -121 29 -29 29 -29 39 0 c21 0 49 6 63 13 l25 13 13
39 13 40 -3 95 -3 95 -30 0 -30 0 -2 -80 c-1 -44 -2 -95 -2 -112 l-1 -33 -25
-6 -25 -6 -15 12 -15 12 0 109 0 109 -30 0 -30 0 0 -121z m177 -51 c-2 -29 -3
-8 -3 47 0 55 1 79 3 53 2 -26 2 -71 0 -100z m-122 -78 c3 -5 4 -10 1 -10 -3
0 -8 5 -11 10 -3 6 -4 10 -1 10 3 0 8 -4 11 -10z m32 -17 c-4 -3 -10 -3 -14 0
-3 4 0 7 7 7 7 0 10 -3 7 -7z m50 0 c-4 -3 -10 -3 -14 0 -3 4 0 7 7 7 7 0 10
-3 7 -7z" />
    <path d="M2872 1643 l3 -148 28 -3 27 -3 0 40 0 41 13 0 c8 0 22 -18 32 -40
l18 -40 29 0 c15 0 28 2 28 5 0 2 -7 22 -16 44 l-16 40 16 23 16 22 0 59 0 58
-25 24 -24 25 -66 0 -66 0 3 -147z m139 100 l14 -18 -17 14 c-17 13 -22 21
-14 21 2 0 10 -8 17 -17z m-23 -57 l3 -39 -13 -8 c-7 -5 -21 -9 -30 -9 l-18 0
0 51 0 50 28 -3 27 -3 3 -39z m23 -69 l-12 -12 7 18 c3 10 9 15 12 12 3 -3 0
-11 -7 -18z m-104 -24 c-4 -3 -7 0 -7 7 0 7 3 10 7 7 3 -4 3 -10 0 -14z m83
13 c0 -3 -5 -8 -12 -12 l-11 -7 7 11 c7 12 16 16 16 8z" />
    <path d="M3147 1651 c-21 -77 -37 -144 -37 -151 l0 -11 27 3 27 3 10 33 9 32
32 0 32 0 9 -32 10 -33 27 -3 c15 -2 27 0 27 5 0 4 -17 72 -37 151 l-38 142
-31 0 -31 0 -36 -139z m66 94 c-3 -9 -8 -14 -10 -11 -3 3 -2 9 2 15 9 16 15
13 8 -4z m-16 -42 c-4 -3 -7 0 -7 7 0 7 3 10 7 7 3 -4 3 -10 0 -14z m32 -75
c1 -5 -6 -8 -14 -8 -16 0 -19 9 -8 36 l6 18 8 -20 c4 -10 8 -22 8 -26z m38
-35 c-4 -3 -7 0 -7 7 0 7 3 10 7 7 3 -4 3 -10 0 -14z" />
    <path d="M3384 1776 c-3 -7 -4 -74 -2 -147 l3 -134 28 -3 27 -3 0 72 c0 40 3
69 7 65 4 -4 19 -35 33 -69 l27 -62 29 0 29 0 3 148 3 148 -33 -3 -33 -3 -3
-60 -4 -60 -28 63 -29 62 -26 0 c-14 0 -28 -6 -31 -14z m33 -198 c-2 -35 -3
-7 -3 62 0 69 1 97 3 63 2 -35 2 -91 0 -125z m58 72 c3 -5 4 -10 1 -10 -3 0
-8 5 -11 10 -3 6 -4 10 -1 10 3 0 8 -4 11 -10z m62 -122 l-5 -13 -1 19 c-1 11
2 17 5 13 3 -3 4 -12 1 -19z" />
    <path d="M3640 1761 l0 -30 31 -3 31 -3 2 -115 1 -115 30 0 30 0 3 118 3 117
29 0 30 0 0 30 0 30 -95 0 -95 0 0 -29z" />
    <path d="M3892 1643 l3 -148 78 -3 77 -3 0 31 0 30 -51 0 -50 0 3 33 3 32 38
3 37 3 0 25 0 24 -40 0 -40 0 0 30 0 30 50 0 50 0 0 30 0 30 -80 0 -81 0 3
-147z" />
    <path d="M4273 1777 c3 -8 20 -68 37 -133 18 -66 36 -127 41 -136 l10 -18 24
0 24 0 14 53 c9 28 25 88 37 132 12 44 24 88 26 98 l5 17 -29 0 -30 0 -23 -85
c-12 -47 -25 -83 -28 -79 -3 3 -15 40 -27 82 l-21 77 -33 3 -33 3 6 -14z m134
-184 c-4 -3 -7 0 -7 7 0 7 3 10 7 7 3 -4 3 -10 0 -14z m-10 -30 c-4 -3 -7 0
-7 7 0 7 3 10 7 7 3 -4 3 -10 0 -14z m-10 -40 c-4 -3 -7 0 -7 7 0 7 3 10 7 7
3 -4 3 -10 0 -14z" />
    <path d="M4552 1643 l3 -148 28 -3 27 -3 0 150 0 151 -30 0 -31 0 3 -147z" />
    <path d="M4670 1760 l0 -30 35 0 35 0 0 -121 0 -120 28 3 27 3 3 118 3 117 29
0 30 0 0 30 0 30 -95 0 -95 0 0 -30z" />
    <path d="M4945 1765 l-25 -24 0 -101 0 -100 20 -20 c11 -11 31 -22 45 -26 36
-9 94 2 116 22 l18 16 7 54 c3 30 3 79 -1 109 l-7 56 -21 19 -21 20 -53 0 -54
0 -24 -25z m35 -9 c0 -3 -5 -8 -12 -12 l-11 -7 7 11 c7 12 16 16 16 8z m78
-113 l3 -82 -26 -7 -25 -6 -15 12 -15 12 0 63 c0 35 3 71 6 80 l7 16 31 -3 31
-3 3 -82z m-1 -120 c-4 -3 -10 -3 -14 0 -3 4 0 7 7 7 7 0 10 -3 7 -7z" />
    <path d="M5202 1643 l3 -148 28 -3 27 -3 0 40 0 41 13 0 c8 0 21 -18 30 -40
l15 -40 31 0 c17 0 31 2 31 5 0 2 -7 20 -16 39 l-17 35 18 37 17 37 -4 55 -5
55 -23 19 -22 18 -64 0 -65 0 3 -147z m133 107 c3 -5 4 -10 1 -10 -3 0 -8 5
-11 10 -3 6 -4 10 -1 10 3 0 8 -4 11 -10z m-17 -58 c4 -38 -12 -62 -39 -62
l-19 0 0 51 0 50 28 -3 27 -3 3 -33z m29 -59 c-4 -3 -7 0 -7 7 0 7 3 10 7 7 3
-4 3 -10 0 -14z m-110 -40 c-4 -3 -7 0 -7 7 0 7 3 10 7 7 3 -4 3 -10 0 -14z" />
    <path d="M5452 1643 l3 -148 30 0 30 0 0 145 0 145 -33 3 -33 3 3 -148z" />
    <path d="M5644 1763 c-4 -15 -21 -81 -39 -145 -18 -65 -30 -120 -27 -123 3 -3
15 -5 28 -5 l22 0 12 35 12 35 32 0 32 0 9 -32 10 -33 28 -3 c15 -2 27 0 27 5
0 4 -17 71 -38 148 l-38 140 -32 3 -31 3 -7 -28z m44 -142 c-15 -6 -20 7 -12
31 l8 23 6 -25 c3 -14 2 -27 -2 -29z" />
  </g>
</svg>